<svg xmlns="http://www.w3.org/2000/svg" viewBox="0 0 1200 630" width="1200" height="630"><defs>
    <linearGradient id="og-wall" x1="0" y1="0" x2="0" y2="1"><stop offset="0" stop-color="#F5ECDD"/><stop offset=".6" stop-color="#EADDC7"/><stop offset="1" stop-color="#D8C7AC"/></linearGradient>
    <radialGradient id="og-window" cx=".78" cy=".12" r=".7"><stop offset="0" stop-color="#FFF7E4" stop-opacity=".95"/><stop offset=".45" stop-color="#FFF3DC" stop-opacity=".35"/><stop offset="1" stop-color="#FFF3DC" stop-opacity="0"/></radialGradient>
    <linearGradient id="og-wood" x1="0" y1="0" x2="0" y2="1"><stop offset="0" stop-color="#A57A50"/><stop offset=".5" stop-color="#835B3A"/><stop offset="1" stop-color="#5E3F29"/></linearGradient>
    <linearGradient id="og-woodx" x1="0" y1="0" x2="1" y2="0"><stop offset="0" stop-color="#000" stop-opacity=".18"/><stop offset=".35" stop-color="#000" stop-opacity="0"/><stop offset=".75" stop-color="#fff" stop-opacity=".06"/><stop offset="1" stop-color="#000" stop-opacity=".22"/></linearGradient>
    <linearGradient id="og-lid" x1="0" y1="0" x2="1" y2="0"><stop offset="0" stop-color="#B08D5E"/><stop offset=".22" stop-color="#E2C596"/><stop offset=".55" stop-color="#D6B77F"/><stop offset="1" stop-color="#9D7A4E"/></linearGradient>
    <radialGradient id="og-lidtop" cx=".4" cy=".35" r=".8"><stop offset="0" stop-color="#EDD7AE"/><stop offset="1" stop-color="#C5A26F"/></radialGradient>
    <linearGradient id="og-honey" x1="0" y1="0" x2="1" y2="0"><stop offset="0" stop-color="#4f280a"/><stop offset=".22" stop-color="#976844"/><stop offset=".5" stop-color="#7A3E0F"/><stop offset=".8" stop-color="#875127"/><stop offset="1" stop-color="#432208"/></linearGradient>
    <linearGradient id="og-honeyv" x1="0" y1="0" x2="0" y2="1"><stop offset="0" stop-color="#fff" stop-opacity=".1"/><stop offset=".5" stop-color="#fff" stop-opacity="0"/><stop offset="1" stop-color="#000" stop-opacity=".28"/></linearGradient>
    <linearGradient id="og-glass" x1="0" y1="0" x2="1" y2="0"><stop offset="0" stop-color="#fff" stop-opacity=".5"/><stop offset=".08" stop-color="#fff" stop-opacity=".16"/><stop offset=".3" stop-color="#fff" stop-opacity="0"/><stop offset=".72" stop-color="#fff" stop-opacity=".06"/><stop offset=".86" stop-color="#fff" stop-opacity=".3"/><stop offset="1" stop-color="#2a1a0a" stop-opacity=".3"/></linearGradient>
    <pattern id="og-stripe" width="16" height="10" patternUnits="userSpaceOnUse"><rect width="16" height="10" fill="#FAF4E4"/><rect width="8" height="10" fill="#F1E3AE" opacity=".85"/></pattern>
    <linearGradient id="og-ginger" x1="0" y1="0" x2="1" y2="1"><stop offset="0" stop-color="#E7CFA0"/><stop offset=".5" stop-color="#D3B07A"/><stop offset="1" stop-color="#A9835A"/></linearGradient>
    <radialGradient id="og-tea" cx=".5" cy=".4" r=".7"><stop offset="0" stop-color="#E4B25F"/><stop offset=".7" stop-color="#C98A3A"/><stop offset="1" stop-color="#8E5A22"/></radialGradient>
    <linearGradient id="og-ceramic" x1="0" y1="0" x2="1" y2="0"><stop offset="0" stop-color="#FBF7EE"/><stop offset=".5" stop-color="#F1EADB"/><stop offset="1" stop-color="#CFC3AE"/></linearGradient>
    <linearGradient id="og-linen" x1="0" y1="0" x2="1" y2="1"><stop offset="0" stop-color="#F7F2E8"/><stop offset="1" stop-color="#E3D9C6"/></linearGradient>
    <radialGradient id="og-lemon" cx=".5" cy=".5" r=".5"><stop offset="0" stop-color="#F9E58A"/><stop offset=".78" stop-color="#F0CF4E"/><stop offset=".82" stop-color="#FCF6D8"/><stop offset=".9" stop-color="#F6E27A"/><stop offset="1" stop-color="#D9B22E"/></radialGradient>
    <radialGradient id="og-vig" cx=".5" cy=".5" r=".75"><stop offset=".55" stop-color="#000" stop-opacity="0"/><stop offset="1" stop-color="#2a1a10" stop-opacity=".28"/></radialGradient>
    <filter id="og-soft" x="-40%" y="-40%" width="180%" height="180%"><feGaussianBlur stdDeviation="16"/></filter>
    <filter id="og-blur" x="-10%" y="-10%" width="120%" height="120%"><feGaussianBlur stdDeviation="7"/></filter>
    <filter id="og-dof" x="-10%" y="-10%" width="120%" height="120%"><feGaussianBlur stdDeviation="3.2"/></filter>
    <filter id="og-steam" x="-50%" y="-50%" width="200%" height="200%"><feGaussianBlur stdDeviation="4"/></filter>
    <filter id="og-grain"><feTurbulence type="fractalNoise" baseFrequency=".9" numOctaves="2" seed="7"/><feColorMatrix values="0 0 0 0 .5 0 0 0 0 .45 0 0 0 0 .4 0 0 0 .07 0"/></filter>
    <clipPath id="og-jarclip"><path d="M0 46 Q0 0 46 0 H254 Q300 0 300 46 V262 Q300 296 266 296 H34 Q0 296 0 262 Z"/></clipPath>
  </defs><rect width="1200" height="630" fill="url(#og-wall)"/><rect width="1200" height="630" fill="url(#og-window)"/><rect x="0" y="500" width="1000" height="130" fill="url(#og-wood)"/><rect x="0" y="500" width="1000" height="130" fill="url(#og-woodx)"/><path d="M-20 530 C 250 522, 520 540, 1020 526" fill="none" stroke="#3a2415" stroke-opacity=".14" stroke-width="1.2"/><path d="M-20 555.4444444444445 C 250 547.4444444444445, 520 565.4444444444445, 1020 551.4444444444445" fill="none" stroke="#3a2415" stroke-opacity=".14" stroke-width="1.7999999999999998"/><path d="M-20 558.8888888888889 C 250 550.8888888888889, 520 568.8888888888889, 1020 554.8888888888889" fill="none" stroke="#3a2415" stroke-opacity=".14" stroke-width="2.4"/><path d="M-20 584.3333333333334 C 250 576.3333333333334, 520 594.3333333333334, 1020 580.3333333333334" fill="none" stroke="#3a2415" stroke-opacity=".14" stroke-width="1.2"/><path d="M-20 587.7777777777778 C 250 579.7777777777778, 520 597.7777777777778, 1020 583.7777777777778" fill="none" stroke="#3a2415" stroke-opacity=".14" stroke-width="1.7999999999999998"/><path d="M-20 613.2222222222222 C 250 605.2222222222222, 520 623.2222222222222, 1020 609.2222222222222" fill="none" stroke="#3a2415" stroke-opacity=".14" stroke-width="2.4"/><path d="M-20 616.6666666666666 C 250 608.6666666666666, 520 626.6666666666666, 1020 612.6666666666666" fill="none" stroke="#3a2415" stroke-opacity=".14" stroke-width="1.2"/><path d="M-20 642.1111111111111 C 250 634.1111111111111, 520 652.1111111111111, 1020 638.1111111111111" fill="none" stroke="#3a2415" stroke-opacity=".14" stroke-width="1.7999999999999998"/><path d="M-20 645.5555555555555 C 250 637.5555555555555, 520 655.5555555555555, 1020 641.5555555555555" fill="none" stroke="#3a2415" stroke-opacity=".14" stroke-width="2.4"/><rect x="0" y="500" width="1000" height="6" fill="#fff" opacity=".08"/><ellipse class="" cx="880" cy="600" rx="220" ry="36" fill="#2a1a0e" opacity="0.45" filter="url(#og-soft)"/><g class="float"><g transform="translate(740 220) scale(0.9)">
    <g clip-path="url(#og-jarclip)">
      <rect x="0" y="0" width="300" height="296" fill="url(#og-honey)"/>
      <ellipse cx="216" cy="162" rx="10" ry="5.5" fill="#E9D8A6" opacity=".55" transform="rotate(0 216 162)"/><ellipse cx="216" cy="162" rx="6" ry="3" fill="#F3E7BF" opacity=".5" transform="rotate(0 216 162)"/><ellipse cx="73" cy="223" rx="14" ry="7.700000000000001" fill="#E9D8A6" opacity=".55" transform="rotate(37 73 223)"/><ellipse cx="73" cy="223" rx="8.4" ry="4.2" fill="#F3E7BF" opacity=".5" transform="rotate(37 73 223)"/><ellipse cx="170" cy="84" rx="18" ry="9.9" fill="#E9D8A6" opacity=".55" transform="rotate(74 170 84)"/><ellipse cx="170" cy="84" rx="10.799999999999999" ry="5.3999999999999995" fill="#F3E7BF" opacity=".5" transform="rotate(74 170 84)"/><ellipse cx="267" cy="145" rx="10" ry="5.5" fill="#E9D8A6" opacity=".55" transform="rotate(111 267 145)"/><ellipse cx="267" cy="145" rx="6" ry="3" fill="#F3E7BF" opacity=".5" transform="rotate(111 267 145)"/><ellipse cx="124" cy="206" rx="14" ry="7.700000000000001" fill="#E9D8A6" opacity=".55" transform="rotate(148 124 206)"/><ellipse cx="124" cy="206" rx="8.4" ry="4.2" fill="#F3E7BF" opacity=".5" transform="rotate(148 124 206)"/><ellipse cx="221" cy="67" rx="18" ry="9.9" fill="#E9D8A6" opacity=".55" transform="rotate(5 221 67)"/><ellipse cx="221" cy="67" rx="10.799999999999999" ry="5.3999999999999995" fill="#F3E7BF" opacity=".5" transform="rotate(5 221 67)"/><ellipse cx="78" cy="128" rx="10" ry="5.5" fill="#E9D8A6" opacity=".55" transform="rotate(42 78 128)"/><ellipse cx="78" cy="128" rx="6" ry="3" fill="#F3E7BF" opacity=".5" transform="rotate(42 78 128)"/><ellipse cx="175" cy="189" rx="14" ry="7.700000000000001" fill="#E9D8A6" opacity=".55" transform="rotate(79 175 189)"/><ellipse cx="175" cy="189" rx="8.4" ry="4.2" fill="#F3E7BF" opacity=".5" transform="rotate(79 175 189)"/><ellipse cx="32" cy="250" rx="18" ry="9.9" fill="#E9D8A6" opacity=".55" transform="rotate(116 32 250)"/><ellipse cx="32" cy="250" rx="10.799999999999999" ry="5.3999999999999995" fill="#F3E7BF" opacity=".5" transform="rotate(116 32 250)"/>
      <rect x="0" y="0" width="300" height="296" fill="url(#og-honeyv)"/>
      <ellipse cx="150" cy="8" rx="150" ry="18" fill="#fff" opacity=".12"/>
    </g>
    <path d="M0 46 Q0 0 46 0 H254 Q300 0 300 46 V262 Q300 296 266 296 H34 Q0 296 0 262 Z" fill="url(#og-glass)"/>
    <path d="M0 46 Q0 0 46 0 H254 Q300 0 300 46 V262 Q300 296 266 296 H34 Q0 296 0 262 Z" fill="none" stroke="#fff" stroke-opacity=".5" stroke-width="2"/>
    <g><rect x="30" y="62" width="240" height="214" fill="url(#og-stripe)"/><rect x="30" y="62" width="240" height="214" fill="url(#og-glass)" opacity=".5"/><svg x="106" y="74" viewBox="0 0 200 200" width="88" height="88" role="img" aria-labelledby="og-lm-t" class="fe-mark"><title id="og-lm-t">Functional Elixirs</title>
    <path d="M16 0H184A16 16 0 0 0 200 16V184A16 16 0 0 0 184 200H16A16 16 0 0 0 0 184V16A16 16 0 0 0 16 0Z" fill="#1D2B33"/>
    <path d="M16 0H184A16 16 0 0 0 200 16V184A16 16 0 0 0 184 200H16A16 16 0 0 0 0 184V16A16 16 0 0 0 16 0Z" fill="none" stroke="#D4AC54" stroke-width="2.4" transform="translate(100 100) scale(.94) translate(-100 -100)"/>
    <path d="M16 0H184A16 16 0 0 0 200 16V184A16 16 0 0 0 184 200H16A16 16 0 0 0 0 184V16A16 16 0 0 0 16 0Z" fill="none" stroke="#D4AC54" stroke-width="1.2" transform="translate(100 100) scale(.895) translate(-100 -100)"/>
    <text x="26" y="112" font-family="Iowan Old Style, Palatino Linotype, Palatino, Georgia, serif" font-size="104" fill="#D4AC54">F</text>
    <text x="122" y="152" font-family="Iowan Old Style, Palatino Linotype, Palatino, Georgia, serif" font-size="104" fill="#D4AC54">E</text>
    <g>
    <path d="M56 158 C 90 120, 120 88, 170 34" fill="none" stroke="#D4AC54" stroke-width="2.6" stroke-linecap="round"/>
    <ellipse cx="66" cy="138" rx="12" ry="3.84" transform="rotate(-62 66 138)" fill="#D4AC54"/><ellipse cx="88" cy="126" rx="12" ry="3.84" transform="rotate(8 88 126)" fill="#D4AC54"/><ellipse cx="84" cy="112" rx="12" ry="3.84" transform="rotate(-66 84 112)" fill="#D4AC54"/><ellipse cx="108" cy="104" rx="12" ry="3.84" transform="rotate(4 108 104)" fill="#D4AC54"/><ellipse cx="104" cy="90" rx="12" ry="3.84" transform="rotate(-68 104 90)" fill="#D4AC54"/><ellipse cx="128" cy="82" rx="12" ry="3.84" transform="rotate(0 128 82)" fill="#D4AC54"/><ellipse cx="124" cy="68" rx="12" ry="3.84" transform="rotate(-70 124 68)" fill="#D4AC54"/><ellipse cx="148" cy="60" rx="12" ry="3.84" transform="rotate(-4 148 60)" fill="#D4AC54"/><ellipse cx="146" cy="46" rx="11" ry="3.52" transform="rotate(-72 146 46)" fill="#D4AC54"/><ellipse cx="166" cy="40" rx="10" ry="3.2" transform="rotate(-10 166 40)" fill="#D4AC54"/>
    <circle cx="70" cy="152" r="3.2" fill="#D4AC54"/><circle cx="98" cy="118" r="2.8" fill="#D4AC54"/><circle cx="118" cy="98" r="2.6" fill="#D4AC54"/><circle cx="142" cy="72" r="2.6" fill="#D4AC54"/><circle cx="160" cy="52" r="2.4" fill="#D4AC54"/>
  </g>
    <text x="100" y="173" text-anchor="middle" font-family="Iowan Old Style, Palatino Linotype, Palatino, Georgia, serif" font-size="17.5" letter-spacing="1.6" fill="#D4AC54">FUNCTIONAL</text>
    <text x="100" y="191" text-anchor="middle" font-family="Iowan Old Style, Palatino Linotype, Palatino, Georgia, serif" font-size="17.5" letter-spacing="2.4" fill="#D4AC54">ELIXIRS</text>
  </svg><text x="150" y="202" text-anchor="middle" font-family="Iowan Old Style, Palatino Linotype, Palatino, Georgia, serif" font-size="22" letter-spacing="3" fill="#B58A3A">DIPPER</text></g>
    <path class="glass-sweep" d="M26 40 L 26 262" stroke="#fff" stroke-opacity=".55" stroke-width="9" stroke-linecap="round"/>
    <path d="M270 60 L 270 250" stroke="#fff" stroke-opacity=".22" stroke-width="5" stroke-linecap="round"/>
    <g><rect x="-8" y="-72" width="316" height="78" rx="12" fill="url(#og-lid)"/><path d="M40 -66 v 66" stroke="#8F6D42" stroke-opacity=".18" stroke-width="2"/><path d="M90 -66 v 66" stroke="#8F6D42" stroke-opacity=".18" stroke-width="2"/><path d="M140 -66 v 66" stroke="#8F6D42" stroke-opacity=".18" stroke-width="2"/><path d="M190 -66 v 66" stroke="#8F6D42" stroke-opacity=".18" stroke-width="2"/><path d="M240 -66 v 66" stroke="#8F6D42" stroke-opacity=".18" stroke-width="2"/><ellipse cx="150" cy="-72" rx="158" ry="26" fill="url(#og-lidtop)"/><ellipse cx="150" cy="-72" rx="126" ry="20.16" fill="none" stroke="#9D7A4E" stroke-opacity=".3"/><ellipse cx="150" cy="-72" rx="92" ry="14.72" fill="none" stroke="#9D7A4E" stroke-opacity=".3"/><ellipse cx="150" cy="-72" rx="58" ry="9.28" fill="none" stroke="#9D7A4E" stroke-opacity=".3"/><ellipse cx="150" cy="-72" rx="28" ry="4.48" fill="none" stroke="#9D7A4E" stroke-opacity=".3"/><rect x="-8" y="0" width="316" height="8" rx="3" fill="#3a2410" opacity=".35"/></g>
  </g></g><g transform="translate(540 540) rotate(-10) scale(0.8)">
    <path d="M0 0 c 10 -22 34 -26 50 -12 c 14 -18 40 -14 46 6 c 20 -6 34 14 22 30 c 12 14 -2 34 -22 30 c -6 18 -32 22 -46 6 c -16 14 -42 8 -48 -10 c -18 -2 -24 -22 -12 -36 Z" fill="url(#og-ginger)"/>
    <path d="M10 -6 c 6 -2 12 -1 16 4 M60 -8 c 6 -3 12 -2 16 3 M98 24 c 4 4 6 10 4 16 M30 40 c 6 4 12 4 18 0 M70 46 c 6 2 12 0 16 -4" fill="none" stroke="#8F6B45" stroke-opacity=".55" stroke-width="2.4" stroke-linecap="round"/>
    <ellipse cx="118" cy="10" rx="16" ry="11" fill="#F0E4A8" transform="rotate(-20 118 10)"/><ellipse cx="118" cy="10" rx="10" ry="6" fill="none" stroke="#C7B06A" stroke-opacity=".7" transform="rotate(-20 118 10)"/>
  </g>
    <g transform="translate(70 120)"><svg viewBox="0 0 200 200" width="120" height="120" role="img" aria-labelledby="og-lm-t" class="fe-mark"><title id="og-lm-t">Functional Elixirs</title>
    <path d="M16 0H184A16 16 0 0 0 200 16V184A16 16 0 0 0 184 200H16A16 16 0 0 0 0 184V16A16 16 0 0 0 16 0Z" fill="#1D2B33"/>
    <path d="M16 0H184A16 16 0 0 0 200 16V184A16 16 0 0 0 184 200H16A16 16 0 0 0 0 184V16A16 16 0 0 0 16 0Z" fill="none" stroke="#D4AC54" stroke-width="2.4" transform="translate(100 100) scale(.94) translate(-100 -100)"/>
    <path d="M16 0H184A16 16 0 0 0 200 16V184A16 16 0 0 0 184 200H16A16 16 0 0 0 0 184V16A16 16 0 0 0 16 0Z" fill="none" stroke="#D4AC54" stroke-width="1.2" transform="translate(100 100) scale(.895) translate(-100 -100)"/>
    <text x="26" y="112" font-family="Iowan Old Style, Palatino Linotype, Palatino, Georgia, serif" font-size="104" fill="#D4AC54">F</text>
    <text x="122" y="152" font-family="Iowan Old Style, Palatino Linotype, Palatino, Georgia, serif" font-size="104" fill="#D4AC54">E</text>
    <g>
    <path d="M56 158 C 90 120, 120 88, 170 34" fill="none" stroke="#D4AC54" stroke-width="2.6" stroke-linecap="round"/>
    <ellipse cx="66" cy="138" rx="12" ry="3.84" transform="rotate(-62 66 138)" fill="#D4AC54"/><ellipse cx="88" cy="126" rx="12" ry="3.84" transform="rotate(8 88 126)" fill="#D4AC54"/><ellipse cx="84" cy="112" rx="12" ry="3.84" transform="rotate(-66 84 112)" fill="#D4AC54"/><ellipse cx="108" cy="104" rx="12" ry="3.84" transform="rotate(4 108 104)" fill="#D4AC54"/><ellipse cx="104" cy="90" rx="12" ry="3.84" transform="rotate(-68 104 90)" fill="#D4AC54"/><ellipse cx="128" cy="82" rx="12" ry="3.84" transform="rotate(0 128 82)" fill="#D4AC54"/><ellipse cx="124" cy="68" rx="12" ry="3.84" transform="rotate(-70 124 68)" fill="#D4AC54"/><ellipse cx="148" cy="60" rx="12" ry="3.84" transform="rotate(-4 148 60)" fill="#D4AC54"/><ellipse cx="146" cy="46" rx="11" ry="3.52" transform="rotate(-72 146 46)" fill="#D4AC54"/><ellipse cx="166" cy="40" rx="10" ry="3.2" transform="rotate(-10 166 40)" fill="#D4AC54"/>
    <circle cx="70" cy="152" r="3.2" fill="#D4AC54"/><circle cx="98" cy="118" r="2.8" fill="#D4AC54"/><circle cx="118" cy="98" r="2.6" fill="#D4AC54"/><circle cx="142" cy="72" r="2.6" fill="#D4AC54"/><circle cx="160" cy="52" r="2.4" fill="#D4AC54"/>
  </g>
    <text x="100" y="173" text-anchor="middle" font-family="Iowan Old Style, Palatino Linotype, Palatino, Georgia, serif" font-size="17.5" letter-spacing="1.6" fill="#D4AC54">FUNCTIONAL</text>
    <text x="100" y="191" text-anchor="middle" font-family="Iowan Old Style, Palatino Linotype, Palatino, Georgia, serif" font-size="17.5" letter-spacing="2.4" fill="#D4AC54">ELIXIRS</text>
  </svg><text x="0" y="200" font-family="Iowan Old Style, Palatino Linotype, Palatino, Georgia, serif" font-size="44" letter-spacing="6" fill="#1D2B33">FUNCTIONAL ELIXIRS</text><text x="0" y="260" font-family="Iowan Old Style, Palatino Linotype, Palatino, Georgia, serif" font-size="30" fill="#5C534B">Beechwood Honey Dipper · 6 in</text><text x="0" y="310" font-family="-apple-system, Segoe UI, Helvetica, Arial, sans-serif" font-size="20" letter-spacing="3" fill="#7F5E1C">RAW HONEY · FRESH GINGER · NOTHING ELSE</text></g><rect width="1200" height="630" fill="url(#og-vig)"/><rect width="1200" height="630" filter="url(#og-grain)" opacity=".5" style="mix-blend-mode:multiply"/></svg>