<svg xmlns="http://www.w3.org/2000/svg" viewBox="0 0 1200 630" width="1200" height="630"><defs>
    <linearGradient id="og-wall" x1="0" y1="0" x2="0" y2="1"><stop offset="0" stop-color="#F7F2EA"/><stop offset=".55" stop-color="#EFE7DA"/><stop offset="1" stop-color="#E2D7C5"/></linearGradient>
    <radialGradient id="og-light" cx=".22" cy=".08" r=".75"><stop offset="0" stop-color="#FFFCF5" stop-opacity=".9"/><stop offset=".5" stop-color="#FFF9EE" stop-opacity=".25"/><stop offset="1" stop-color="#FFF9EE" stop-opacity="0"/></radialGradient>
    <linearGradient id="og-table" x1="0" y1="0" x2="0" y2="1"><stop offset="0" stop-color="#E6D5B8"/><stop offset=".45" stop-color="#DBC5A1"/><stop offset="1" stop-color="#C6AA82"/></linearGradient>
    <linearGradient id="og-tablex" x1="0" y1="0" x2="1" y2="0"><stop offset="0" stop-color="#fff" stop-opacity=".16"/><stop offset=".4" stop-color="#fff" stop-opacity="0"/><stop offset="1" stop-color="#5a3f22" stop-opacity=".14"/></linearGradient>
    <linearGradient id="og-wallfoot" x1="0" y1="0" x2="0" y2="1"><stop offset="0" stop-color="#5a4020" stop-opacity="0"/><stop offset="1" stop-color="#5a4020" stop-opacity=".12"/></linearGradient>
    <linearGradient id="og-horizon" x1="0" y1="0" x2="0" y2="1"><stop offset="0" stop-color="#4a3418" stop-opacity=".16"/><stop offset="1" stop-color="#4a3418" stop-opacity="0"/></linearGradient>
    <linearGradient id="og-lidside" x1="0" y1="0" x2="1" y2="0"><stop offset="0" stop-color="#A98A5C"/><stop offset=".18" stop-color="#E9D2A6"/><stop offset=".5" stop-color="#E3C89A"/><stop offset=".82" stop-color="#C9AC7C"/><stop offset="1" stop-color="#93764C"/></linearGradient>
    <linearGradient id="og-lidv" x1="0" y1="0" x2="0" y2="1"><stop offset="0" stop-color="#fff" stop-opacity=".14"/><stop offset=".6" stop-color="#000" stop-opacity="0"/><stop offset="1" stop-color="#3a2a12" stop-opacity=".28"/></linearGradient>
    <radialGradient id="og-lidtop" cx=".36" cy=".3" r=".8"><stop offset="0" stop-color="#F4E4C2"/><stop offset=".6" stop-color="#E4CB9D"/><stop offset="1" stop-color="#C5A672"/></radialGradient>
    <linearGradient id="og-honey" x1="0" y1="0" x2="1" y2="0"><stop offset="0" stop-color="#2e1806"/><stop offset=".14" stop-color="#62320c"/><stop offset=".36" stop-color="#a27857"/><stop offset=".6" stop-color="#7A3E0F"/><stop offset=".86" stop-color="#5c2f0b"/><stop offset="1" stop-color="#2b1605"/></linearGradient>
    <linearGradient id="og-honeyv" x1="0" y1="0" x2="0" y2="1"><stop offset="0" stop-color="#fff" stop-opacity=".14"/><stop offset=".35" stop-color="#fff" stop-opacity="0"/><stop offset="1" stop-color="#1a0a02" stop-opacity=".45"/></linearGradient>
    <radialGradient id="og-glow" cx=".5" cy=".5" r=".5"><stop offset="0" stop-color="#E08A32" stop-opacity=".55"/><stop offset="1" stop-color="#E08A32" stop-opacity="0"/></radialGradient>
    <radialGradient id="og-surface" cx=".38" cy=".4" r=".7"><stop offset="0" stop-color="#ad876a"/><stop offset=".6" stop-color="#7A3E0F"/><stop offset="1" stop-color="#3d1f08"/></radialGradient>
    <linearGradient id="og-glass" x1="0" y1="0" x2="1" y2="0"><stop offset="0" stop-color="#fff" stop-opacity=".42"/><stop offset=".09" stop-color="#fff" stop-opacity=".1"/><stop offset=".3" stop-color="#fff" stop-opacity="0"/><stop offset=".75" stop-color="#fff" stop-opacity=".04"/><stop offset=".93" stop-color="#fff" stop-opacity=".22"/><stop offset="1" stop-color="#1a0c04" stop-opacity=".35"/></linearGradient>
    <linearGradient id="og-paper" x1="0" y1="0" x2="1" y2="0"><stop offset="0" stop-color="#2a1a0a" stop-opacity=".42"/><stop offset=".1" stop-color="#2a1a0a" stop-opacity=".1"/><stop offset=".3" stop-color="#2a1a0a" stop-opacity="0"/><stop offset=".72" stop-color="#2a1a0a" stop-opacity="0"/><stop offset=".9" stop-color="#2a1a0a" stop-opacity=".14"/><stop offset="1" stop-color="#2a1a0a" stop-opacity=".46"/></linearGradient>
    <linearGradient id="og-wood" x1="0" y1="0" x2="1" y2="0"><stop offset="0" stop-color="#A6835A"/><stop offset=".35" stop-color="#E2C592"/><stop offset=".7" stop-color="#D4B47E"/><stop offset="1" stop-color="#9A7749"/></linearGradient>
    <linearGradient id="og-ceramic" x1="0" y1="0" x2="1" y2="0"><stop offset="0" stop-color="#FFFDF8"/><stop offset=".12" stop-color="#F8F3EA"/><stop offset=".5" stop-color="#F1EADC"/><stop offset=".85" stop-color="#CFC2AC"/><stop offset="1" stop-color="#A89A83"/></linearGradient>
    <linearGradient id="og-ceramicv" x1="0" y1="0" x2="0" y2="1"><stop offset="0" stop-color="#000" stop-opacity="0"/><stop offset="1" stop-color="#5a4a36" stop-opacity=".22"/></linearGradient>
    <radialGradient id="og-tea" cx=".42" cy=".4" r=".68"><stop offset="0" stop-color="#EBBD6C"/><stop offset=".6" stop-color="#CD8E3F"/><stop offset=".85" stop-color="#A5672A"/><stop offset="1" stop-color="#6E3F14"/></radialGradient>
    <linearGradient id="og-gingerv" x1="0" y1="0" x2="0" y2="1"><stop offset="0" stop-color="#fff" stop-opacity=".1"/><stop offset=".5" stop-color="#000" stop-opacity="0"/><stop offset="1" stop-color="#4a2e14" stop-opacity=".3"/></linearGradient>
    <linearGradient id="og-rind" x1="0" y1="0" x2="0" y2="1"><stop offset="0" stop-color="#F6DB63"/><stop offset="1" stop-color="#CFA426"/></linearGradient>
    <linearGradient id="og-ginger" x1="0" y1="0" x2="1" y2="1"><stop offset="0" stop-color="#EBD6AC"/><stop offset=".5" stop-color="#D5B27E"/><stop offset="1" stop-color="#A88459"/></linearGradient>
    <radialGradient id="og-veil"><stop offset="0" stop-color="#FDFAF2" stop-opacity=".92"/><stop offset=".55" stop-color="#FDFAF2" stop-opacity=".78"/><stop offset="1" stop-color="#FDFAF2" stop-opacity="0"/></radialGradient>
    <radialGradient id="og-lemon" cx=".5" cy=".5" r=".5"><stop offset="0" stop-color="#FBEFA6"/><stop offset=".72" stop-color="#F3D65E"/><stop offset=".8" stop-color="#FCF6DA"/><stop offset=".9" stop-color="#F1CF48"/><stop offset="1" stop-color="#D9B22E"/></radialGradient>
    <radialGradient id="og-vig" cx=".5" cy=".5" r=".72"><stop offset=".6" stop-color="#000" stop-opacity="0"/><stop offset="1" stop-color="#3a2614" stop-opacity=".2"/></radialGradient>
    <filter id="og-soft" x="-50%" y="-80%" width="200%" height="260%"><feGaussianBlur stdDeviation="18"/></filter>
    <filter id="og-softer" x="-50%" y="-80%" width="200%" height="260%"><feGaussianBlur stdDeviation="34"/></filter>
    <filter id="og-contact" x="-30%" y="-80%" width="160%" height="260%"><feGaussianBlur stdDeviation="6"/></filter>
    <filter id="og-glowf" x="-30%" y="-30%" width="160%" height="160%"><feGaussianBlur stdDeviation="22"/></filter>
    <filter id="og-sweep" x="-100%" y="-10%" width="300%" height="120%"><feGaussianBlur stdDeviation="3"/></filter>
    <filter id="og-steam" x="-50%" y="-50%" width="200%" height="200%"><feGaussianBlur stdDeviation="5"/></filter>
    <filter id="og-dof" x="-10%" y="-10%" width="120%" height="120%"><feGaussianBlur stdDeviation="4.5"/></filter>
    <filter id="og-grain"><feTurbulence type="fractalNoise" baseFrequency=".85" numOctaves="2" seed="11"/><feColorMatrix values="0 0 0 0 .45 0 0 0 0 .4 0 0 0 0 .35 0 0 0 .06 0"/></filter>
    <clipPath id="og-body"><path d="M-150 10 Q-150 -4 -136 -4 H136 Q150 -4 150 10 V236 A150 36 0 0 1 -150 236 Z"/></clipPath>
    <clipPath id="og-label"><path d="M-142 38 Q0 84 142 38 V230 Q0 276 -142 230 Z"/></clipPath>
  </defs><rect width="1200" height="630" fill="url(#og-wall)"/><rect width="1200" height="630" fill="url(#og-light)"/><rect x="0" y="400" width="1000" height="70" fill="url(#og-wallfoot)"/><rect x="0" y="470" width="1000" height="160" fill="url(#og-table)"/><rect x="0" y="470" width="1000" height="160" fill="url(#og-tablex)"/><path d="M-20 520 C 260 514, 560 528, 1020 517" fill="none" stroke="#8a6a44" stroke-opacity=".06" stroke-width="1"/><path d="M-20 551.8571428571429 C 260 545.8571428571429, 560 559.8571428571429, 1020 548.8571428571429" fill="none" stroke="#8a6a44" stroke-opacity=".04" stroke-width="1.5"/><path d="M-20 565.7142857142857 C 260 559.7142857142857, 560 573.7142857142857, 1020 562.7142857142857" fill="none" stroke="#8a6a44" stroke-opacity=".04" stroke-width="2"/><path d="M-20 597.5714285714286 C 260 591.5714285714286, 560 605.5714285714286, 1020 594.5714285714286" fill="none" stroke="#8a6a44" stroke-opacity=".06" stroke-width="1"/><path d="M-20 611.4285714285714 C 260 605.4285714285714, 560 619.4285714285714, 1020 608.4285714285714" fill="none" stroke="#8a6a44" stroke-opacity=".04" stroke-width="1.5"/><path d="M-20 643.2857142857143 C 260 637.2857142857143, 560 651.2857142857143, 1020 640.2857142857143" fill="none" stroke="#8a6a44" stroke-opacity=".04" stroke-width="2"/><path d="M-20 657.1428571428571 C 260 651.1428571428571, 560 665.1428571428571, 1020 654.1428571428571" fill="none" stroke="#8a6a44" stroke-opacity=".06" stroke-width="1"/><rect x="0" y="470" width="1000" height="90" fill="url(#og-horizon)"/><ellipse class="" cx="1019.7" cy="608" rx="313.5" ry="30.4" fill="#3a2410" opacity="0.32" filter="url(#og-softer)"/><ellipse class="" cx="918" cy="602" rx="205.2" ry="12.35" fill="#3a2410" opacity="0.42" filter="url(#og-contact)"/><g class="float"><g transform="translate(900 341.6) scale(0.95)">
    <g clip-path="url(#og-body)">
      <rect x="-150" y="-4" width="300" height="280" fill="url(#og-honey)"/>
      <ellipse cx="-30" cy="130" rx="90" ry="120" fill="url(#og-glow)" filter="url(#og-glowf)"/>
      <rect x="-150" y="-4" width="300" height="280" fill="url(#og-honeyv)"/>
      <ellipse cx="0" cy="0" rx="160" ry="44" fill="#1a0a02" opacity=".55" filter="url(#og-contact)"/>
      <path d="M-150 236 A150 36 0 0 0 150 236" fill="none" stroke="#fff" stroke-opacity=".2" stroke-width="5" filter="url(#og-sweep)"/>
    </g>
    <g clip-path="url(#og-label)"><path d="M-142 38 Q0 84 142 38 V230 Q0 276 -142 230 Z" fill="#FBF7EC"/><path d="M-147.8 30V280" stroke="#EFE0A6" stroke-width="1.5"/><path d="M-144.5 30V280" stroke="#EFE0A6" stroke-width="2.3"/><path d="M-139.8 30V280" stroke="#EFE0A6" stroke-width="3.1"/><path d="M-133.7 30V280" stroke="#EFE0A6" stroke-width="3.9"/><path d="M-126.2 30V280" stroke="#EFE0A6" stroke-width="4.6"/><path d="M-117.5 30V280" stroke="#EFE0A6" stroke-width="5.3"/><path d="M-107.6 30V280" stroke="#EFE0A6" stroke-width="6"/><path d="M-96.6 30V280" stroke="#EFE0A6" stroke-width="6.6"/><path d="M-84.7 30V280" stroke="#EFE0A6" stroke-width="7.1"/><path d="M-71.9 30V280" stroke="#EFE0A6" stroke-width="7.5"/><path d="M-58.4 30V280" stroke="#EFE0A6" stroke-width="7.9"/><path d="M-44.3 30V280" stroke="#EFE0A6" stroke-width="8.2"/><path d="M-29.8 30V280" stroke="#EFE0A6" stroke-width="8.4"/><path d="M-15 30V280" stroke="#EFE0A6" stroke-width="8.6"/><path d="M0 30V280" stroke="#EFE0A6" stroke-width="8.6"/><path d="M15 30V280" stroke="#EFE0A6" stroke-width="8.6"/><path d="M29.8 30V280" stroke="#EFE0A6" stroke-width="8.4"/><path d="M44.3 30V280" stroke="#EFE0A6" stroke-width="8.2"/><path d="M58.4 30V280" stroke="#EFE0A6" stroke-width="7.9"/><path d="M71.9 30V280" stroke="#EFE0A6" stroke-width="7.5"/><path d="M84.7 30V280" stroke="#EFE0A6" stroke-width="7.1"/><path d="M96.6 30V280" stroke="#EFE0A6" stroke-width="6.6"/><path d="M107.6 30V280" stroke="#EFE0A6" stroke-width="6"/><path d="M117.5 30V280" stroke="#EFE0A6" stroke-width="5.3"/><path d="M126.2 30V280" stroke="#EFE0A6" stroke-width="4.6"/><path d="M133.7 30V280" stroke="#EFE0A6" stroke-width="3.9"/><path d="M139.8 30V280" stroke="#EFE0A6" stroke-width="3.1"/><path d="M144.5 30V280" stroke="#EFE0A6" stroke-width="2.3"/><path d="M147.8 30V280" stroke="#EFE0A6" stroke-width="1.5"/><ellipse cx="0" cy="202" rx="118" ry="62" fill="url(#og-veil)"/><image href="/assets/img/logo-mark.png" x="-42" y="64" width="84" height="84" preserveAspectRatio="xMidYMid meet"/><text x="0" y="176" text-anchor="middle" font-family="Iowan Old Style, Palatino Linotype, Palatino, Georgia, serif" font-size="27" letter-spacing="3.4" fill="#B8903E" font-weight="700" stroke="#B8903E" stroke-width=".8">HONEY</text>
       <text x="0" y="190" text-anchor="middle" font-family="Snell Roundhand, Brush Script MT, Segoe Script, cursive" font-size="12" fill="#6B5A3E" font-style="italic">with fresh</text>
       <text x="0" y="215" text-anchor="middle" font-family="Iowan Old Style, Palatino Linotype, Palatino, Georgia, serif" font-size="27" letter-spacing="3.4" fill="#B8903E" font-weight="700" stroke="#B8903E" stroke-width=".8">GINGER</text>
       <text x="0" y="229" text-anchor="middle" font-family="Snell Roundhand, Brush Script MT, Segoe Script, cursive" font-size="10" fill="#6B5A3E" font-style="italic">Crafted from family tradition</text>
       <text x="0" y="241" text-anchor="middle" font-family="-apple-system, Segoe UI, Helvetica, Arial, sans-serif" font-size="7.5" letter-spacing="1" fill="#6B5A3E">8 oz (425 g)</text><path d="M-142 38 Q0 84 142 38 V230 Q0 276 -142 230 Z" fill="url(#og-paper)"/><g class="label-sheen"><path d="M-190 -60 L-120 -60 L-40 360 L-110 360 Z" fill="#fff" opacity=".42"/></g></g>
    <path d="M-150 10 Q-150 -4 -136 -4 H136 Q150 -4 150 10 V236 A150 36 0 0 1 -150 236 Z" fill="url(#og-glass)"/>
    <g clip-path="url(#og-body)">
      <path class="glass-sweep" d="M-120 22 V246" stroke="#fff" stroke-opacity=".5" stroke-width="13" stroke-linecap="round" filter="url(#og-sweep)"/>
      <path d="M134 60 V232" stroke="#fff" stroke-opacity=".16" stroke-width="5" stroke-linecap="round" filter="url(#og-sweep)"/>
      <path d="M-150 236 A150 36 0 0 0 150 236" fill="none" stroke="#fff" stroke-opacity=".18" stroke-width="3"/>
    </g>
    <path d="M-150 10 Q-150 -4 -136 -4 H136 Q150 -4 150 10 V236 A150 36 0 0 1 -150 236 Z" fill="none" stroke="#fff" stroke-opacity=".28" stroke-width="1.5"/>
    <g>
    <path d="M-162 -66 V0 A162 26 0 0 0 162 0 V-66 Z" fill="url(#og-lidside)"/><path d="M-162 -66 V0 A162 26 0 0 0 162 0 V-66 Z" fill="url(#og-lidv)"/><path d="M-132 -58V11.1" stroke="#8F6D42" stroke-opacity=".14" stroke-width="1.6"/><path d="M-100 -58V16.5" stroke="#8F6D42" stroke-opacity=".14" stroke-width="1.6"/><path d="M-66 -58V19.7" stroke="#8F6D42" stroke-opacity=".14" stroke-width="1.6"/><path d="M-34 -58V21.4" stroke="#8F6D42" stroke-opacity=".14" stroke-width="1.6"/><path d="M0 -58V22" stroke="#8F6D42" stroke-opacity=".14" stroke-width="1.6"/><path d="M34 -58V21.4" stroke="#8F6D42" stroke-opacity=".14" stroke-width="1.6"/><path d="M66 -58V19.7" stroke="#8F6D42" stroke-opacity=".14" stroke-width="1.6"/><path d="M100 -58V16.5" stroke="#8F6D42" stroke-opacity=".14" stroke-width="1.6"/><path d="M132 -58V11.1" stroke="#8F6D42" stroke-opacity=".14" stroke-width="1.6"/>
    <ellipse cx="0" cy="-66" rx="162" ry="26" fill="url(#og-lidtop)"/><path d="M-116.9 -84 Q0 -82 116.9 -84" fill="none" stroke="#B8975F" stroke-opacity=".28" stroke-width="1.1"/><path d="M-143.7 -78 Q0 -76 143.7 -78" fill="none" stroke="#B8975F" stroke-opacity=".28" stroke-width="1.1"/><path d="M-157.6 -72 Q0 -70 157.6 -72" fill="none" stroke="#B8975F" stroke-opacity=".28" stroke-width="1.1"/><path d="M-162 -66 Q0 -64 162 -66" fill="none" stroke="#B8975F" stroke-opacity=".28" stroke-width="1.1"/><path d="M-157.6 -60 Q0 -58 157.6 -60" fill="none" stroke="#B8975F" stroke-opacity=".28" stroke-width="1.1"/><path d="M-143.7 -54 Q0 -52 143.7 -54" fill="none" stroke="#B8975F" stroke-opacity=".28" stroke-width="1.1"/><path d="M-116.9 -48 Q0 -46 116.9 -48" fill="none" stroke="#B8975F" stroke-opacity=".28" stroke-width="1.1"/>
    <ellipse cx="0" cy="-66" rx="162" ry="26" fill="none" stroke="#F6E8CB" stroke-opacity=".8" stroke-width="2.2"/>
    <path d="M-162 -2 A162 26 0 0 0 162 -2" fill="none" stroke="#5a3d1c" stroke-opacity=".28" stroke-width="3"/>
  </g>
  </g></g><g transform="translate(560 545) rotate(-10) scale(0.75)">
    <path d="M-70 10 C-80 -8 -64 -22 -46 -16 C-40 -36 -18 -42 -6 -26 C6 -46 32 -48 42 -30 C58 -52 88 -42 82 -20 C96 -10 98 10 82 18 C92 34 74 48 56 38 C48 56 22 58 12 42 C2 58 -24 56 -32 38 C-52 46 -74 32 -70 10 Z" fill="url(#og-ginger)"/>
    <path d="M-70 10 C-80 -8 -64 -22 -46 -16 C-40 -36 -18 -42 -6 -26 C6 -46 32 -48 42 -30 C58 -52 88 -42 82 -20 C96 -10 98 10 82 18 C92 34 74 48 56 38 C48 56 22 58 12 42 C2 58 -24 56 -32 38 C-52 46 -74 32 -70 10 Z" fill="url(#og-gingerv)"/>
    <path d="M-52 -6 c 5 6 5 16 0 24 M-20 -24 c 5 8 6 20 1 30 M30 -30 c 5 8 5 20 0 30 M62 -32 c 5 8 5 18 0 26 M42 24 c -6 6 -14 8 -22 4 M-6 30 c -6 4 -12 4 -18 0" fill="none" stroke="#8F6B45" stroke-opacity=".38" stroke-width="2" stroke-linecap="round"/>
    <path d="M-40 -8 C-24 -20 -6 -22 8 -14" fill="none" stroke="#fff" stroke-opacity=".3" stroke-width="4" stroke-linecap="round"/>
    <path d="M-70 10 C-80 -8 -64 -22 -46 -16 C-40 -36 -18 -42 -6 -26 C6 -46 32 -48 42 -30 C58 -52 88 -42 82 -20 C96 -10 98 10 82 18 C92 34 74 48 56 38 C48 56 22 58 12 42 C2 58 -24 56 -32 38 C-52 46 -74 32 -70 10 Z" fill="#A8875A" opacity=".26"/>
    <g transform="translate(86 0) rotate(-16)"><ellipse cx="0" cy="0" rx="14" ry="20" fill="#F3E6AE"/><ellipse cx="0" cy="0" rx="9" ry="13.5" fill="none" stroke="#CBB46E" stroke-opacity=".7"/><ellipse cx="0" cy="0" rx="14" ry="20" fill="none" stroke="#B9955E" stroke-opacity=".6" stroke-width="1.5"/><ellipse class="glint" cx="-3" cy="-7" rx="4" ry="6" fill="#fff" opacity=".6"/></g>
  </g>
    <g transform="translate(70 120)"><svg viewBox="0 0 200 200" width="120" height="120" role="img" aria-labelledby="og-lm-t"><title id="og-lm-t">Functional Elixirs</title>
    <path d="M16 0H184A16 16 0 0 0 200 16V184A16 16 0 0 0 184 200H16A16 16 0 0 0 0 184V16A16 16 0 0 0 16 0Z" fill="#1D2B33"/>
    <path d="M16 0H184A16 16 0 0 0 200 16V184A16 16 0 0 0 184 200H16A16 16 0 0 0 0 184V16A16 16 0 0 0 16 0Z" fill="none" stroke="#D4AC54" stroke-width="2.4" transform="translate(100 100) scale(.94) translate(-100 -100)"/>
    <path d="M16 0H184A16 16 0 0 0 200 16V184A16 16 0 0 0 184 200H16A16 16 0 0 0 0 184V16A16 16 0 0 0 16 0Z" fill="none" stroke="#D4AC54" stroke-width="1.2" transform="translate(100 100) scale(.895) translate(-100 -100)"/>
    <text x="26" y="112" font-family="Iowan Old Style, Palatino Linotype, Palatino, Georgia, serif" font-size="104" fill="#D4AC54">F</text>
    <text x="122" y="152" font-family="Iowan Old Style, Palatino Linotype, Palatino, Georgia, serif" font-size="104" fill="#D4AC54">E</text>
    <g>
    <path d="M56 158 C 90 120, 120 88, 170 34" fill="none" stroke="#D4AC54" stroke-width="2.6" stroke-linecap="round"/>
    <ellipse cx="66" cy="138" rx="12" ry="3.84" transform="rotate(-62 66 138)" fill="#D4AC54"/><ellipse cx="88" cy="126" rx="12" ry="3.84" transform="rotate(8 88 126)" fill="#D4AC54"/><ellipse cx="84" cy="112" rx="12" ry="3.84" transform="rotate(-66 84 112)" fill="#D4AC54"/><ellipse cx="108" cy="104" rx="12" ry="3.84" transform="rotate(4 108 104)" fill="#D4AC54"/><ellipse cx="104" cy="90" rx="12" ry="3.84" transform="rotate(-68 104 90)" fill="#D4AC54"/><ellipse cx="128" cy="82" rx="12" ry="3.84" transform="rotate(0 128 82)" fill="#D4AC54"/><ellipse cx="124" cy="68" rx="12" ry="3.84" transform="rotate(-70 124 68)" fill="#D4AC54"/><ellipse cx="148" cy="60" rx="12" ry="3.84" transform="rotate(-4 148 60)" fill="#D4AC54"/><ellipse cx="146" cy="46" rx="11" ry="3.52" transform="rotate(-72 146 46)" fill="#D4AC54"/><ellipse cx="166" cy="40" rx="10" ry="3.2" transform="rotate(-10 166 40)" fill="#D4AC54"/>
    <circle cx="70" cy="152" r="3.2" fill="#D4AC54"/><circle cx="98" cy="118" r="2.8" fill="#D4AC54"/><circle cx="118" cy="98" r="2.6" fill="#D4AC54"/><circle cx="142" cy="72" r="2.6" fill="#D4AC54"/><circle cx="160" cy="52" r="2.4" fill="#D4AC54"/>
  </g>
    <text x="100" y="173" text-anchor="middle" font-family="Iowan Old Style, Palatino Linotype, Palatino, Georgia, serif" font-size="17.5" letter-spacing="1.6" fill="#D4AC54">FUNCTIONAL</text>
    <text x="100" y="191" text-anchor="middle" font-family="Iowan Old Style, Palatino Linotype, Palatino, Georgia, serif" font-size="17.5" letter-spacing="2.4" fill="#D4AC54">ELIXIRS</text>
  </svg><text x="0" y="200" font-family="Iowan Old Style, Palatino Linotype, Palatino, Georgia, serif" font-size="44" letter-spacing="6" fill="#1D2B33">FUNCTIONAL ELIXIRS</text><text x="0" y="260" font-family="Iowan Old Style, Palatino Linotype, Palatino, Georgia, serif" font-size="30" fill="#5C534B">Honey with Fresh Ginger · 8 oz</text><text x="0" y="310" font-family="-apple-system, Segoe UI, Helvetica, Arial, sans-serif" font-size="20" letter-spacing="3" fill="#7F5E1C">RAW HONEY · FRESH GINGER · NOTHING ELSE</text></g><rect width="1200" height="630" fill="url(#og-vig)"/><rect width="1200" height="630" filter="url(#og-grain)" style="mix-blend-mode:multiply"/></svg>